<svg viewBox="0 0 18 18" fill="none" xmlns="http://www.w3.org/2000/svg">
<path d="M16.8837 7.29591L15.44 6.97556C15.3275 6.61556 15.1802 6.27103 15.0111 5.93974L15.7922 4.63839C16.0838 4.17236 16.2312 3.48667 15.7922 3.04736L14.9962 2.25199C14.5572 1.81267 13.8158 1.89171 13.3681 2.20221L12.1019 3.00881C11.7734 2.83837 11.43 2.69241 11.0731 2.57709L10.7491 1.116C10.6523 0.580236 10.1838 0 9.56248 0H8.43748C7.8162 0 7.43539 0.588937 7.31248 1.125L6.95164 2.56866C6.57055 2.69016 6.20464 2.84541 5.85589 3.02934L4.55792 2.20275C4.11045 1.89225 3.3688 1.81322 2.92976 2.25253L2.13411 3.04791C1.69479 3.4875 1.84217 4.17291 2.13411 4.63894L2.95592 6.00863C2.80181 6.31913 2.66511 6.64031 2.55964 6.97584L1.11626 7.29619C0.580201 7.39266 0 7.86122 0 8.4825V9.6075C0 10.2288 0.588937 10.6096 1.125 10.7325L2.58666 11.0978C2.68764 11.4078 2.81391 11.7053 2.95678 11.9939L2.13412 13.365C1.84249 13.8308 1.69511 14.5164 2.13412 14.9557L2.93006 15.7511C3.36909 16.1907 4.11047 16.1114 4.55822 15.8012L5.859 14.9723C6.20972 15.1574 6.57759 15.314 6.96122 15.4353L7.3212 16.875C7.44439 17.4111 7.82492 18 8.4462 18H9.5712C10.1925 18 10.661 17.4198 10.7578 16.8837L11.0824 15.4187C11.4356 15.3045 11.7745 15.1605 12.0991 14.9923L13.3681 15.8009C13.8158 16.1114 14.5575 16.1904 14.9962 15.7508L15.7922 14.9555C16.2312 14.5159 16.0838 13.8305 15.7922 13.3647L15.0106 12.0617C15.1678 11.7529 15.304 11.4317 15.4134 11.0976L16.875 10.7325C17.4111 10.6093 18 10.2288 18 9.6075V8.4825C18 7.86122 17.4201 7.39266 16.8837 7.29591ZM16.8755 9.52819C16.8277 9.5625 16.7377 9.60966 16.6235 9.6361L14.5378 10.157L14.3443 10.7481C14.2568 11.0145 14.1437 11.2848 14.0082 11.5517L13.7258 12.1066L14.8277 13.944C14.8981 14.0565 14.931 14.1572 14.9408 14.2165L14.2008 14.9554C14.1294 14.9329 14.0481 14.9036 14.009 14.8769L12.1573 13.6959L11.5816 13.9938C11.3042 14.1378 11.0196 14.2571 10.7361 14.3487L10.123 14.547L9.65948 16.6409C9.6381 16.7529 9.5782 16.8431 9.53713 16.8755H8.52463C8.49034 16.8277 8.44337 16.7377 8.4172 16.6238L7.89943 14.5529L7.30011 14.3628C6.99128 14.2655 6.68333 14.1358 6.38351 13.9778L5.80498 13.6723L3.95295 14.8527C3.87729 14.9039 3.79629 14.9329 3.72289 14.9329L2.98517 14.2149C2.99501 14.1567 3.02567 14.0605 3.08698 13.9623L4.23758 12.0453L3.96392 11.4944C3.83623 11.2345 3.73498 10.9906 3.65623 10.749L3.46301 10.1573L1.39778 9.6409C1.26784 9.61137 1.1739 9.56299 1.12496 9.5284V8.48243C1.12576 8.48281 1.12663 8.48301 1.12751 8.48299C1.14636 8.48299 1.23889 8.41716 1.31595 8.40312L3.43798 7.93313L3.63287 7.31297C3.71218 7.06041 3.82046 6.79716 3.96362 6.50834L4.23728 5.95709L3.09879 4.06005C3.0282 3.94699 2.99558 3.8463 2.98573 3.78724L3.72542 3.04782C3.79714 3.07088 3.87786 3.09985 3.91667 3.12657L5.80301 4.32891L6.38098 4.02404C6.6777 3.86768 6.98455 3.73859 7.29336 3.64043L7.89129 3.45002L8.40428 1.39748C8.43411 1.26756 8.4819 1.17362 8.51678 1.12467H9.5625C9.55489 1.13621 9.62719 1.23435 9.64208 1.31565L10.1146 3.44978L10.7271 3.64778C11.0143 3.74059 11.3029 3.86153 11.5835 4.00721L12.1593 4.30618L13.9725 3.15109C14.0484 3.09932 14.1297 3.07065 14.2025 3.07065L14.9408 3.78812C14.931 3.84662 14.9 3.94309 14.8387 4.04153L13.7253 5.89581L14.0093 6.45156C14.1626 6.75137 14.2796 7.03262 14.3665 7.31162L14.5609 7.9329L16.6402 8.39443C16.7659 8.41778 16.8638 8.49034 16.8846 8.52971L16.8755 9.52819ZM9.00756 5.61927C7.1395 5.61927 5.61962 7.13605 5.61962 8.99989C5.61962 10.8635 7.1395 12.3802 9.00756 12.3802C10.8756 12.3802 12.3955 10.8635 12.3955 8.99989C12.3955 7.13605 10.8756 5.61927 9.00756 5.61927ZM8.99996 11.2499C7.75937 11.2499 6.74996 10.2405 6.74996 8.99989C6.74996 7.75902 7.75937 6.74989 8.99996 6.74989C10.2408 6.74989 11.25 7.75902 11.25 8.99989C11.25 10.2405 10.2406 11.2499 8.99996 11.2499Z" fill="#E6F2FF"/>
</svg>
