<svg viewBox="0 0 47 47" fill="none" xmlns="http://www.w3.org/2000/svg">
    <path d="M44.0625 47H29.375C27.7528 47 26.4375 45.6847 26.4375 44.0625V29.375C26.4375 27.7528 27.7528 26.4375 29.375 26.4375H44.0625C45.6847 26.4375 47 27.7528 47 29.375V44.0625C47 45.6847 45.6847 47 44.0625 47ZM44.0625 29.375H29.375V44.0625H44.0625V29.375ZM44.0625 20.5625H29.375C27.7528 20.5625 26.4375 19.2472 26.4375 17.625V2.9375C26.4375 1.31527 27.7528 0 29.375 0H44.0625C45.6847 0 47 1.31527 47 2.9375V17.625C47 19.2472 45.6847 20.5625 44.0625 20.5625ZM44.0625 2.9375H29.375V17.625H44.0625V2.9375ZM17.625 47H2.9375C1.31527 47 0 45.6847 0 44.0625V29.375C0 27.7528 1.31527 26.4375 2.9375 26.4375H17.625C19.2472 26.4375 20.5625 27.7528 20.5625 29.375V44.0625C20.5625 45.6847 19.2472 47 17.625 47ZM17.625 29.375H2.9375V44.0625H17.625V29.375ZM17.625 20.5625H2.9375C1.31527 20.5625 0 19.2472 0 17.625V2.9375C0 1.31527 1.31527 0 2.9375 0H17.625C19.2472 0 20.5625 1.31527 20.5625 2.9375V17.625C20.5625 19.2472 19.2472 20.5625 17.625 20.5625ZM17.625 2.9375H2.9375V17.625H17.625V2.9375Z"
          fill="#fff"/>
</svg>
