<svg viewBox="0 0 18 18" fill="none" xmlns="http://www.w3.org/2000/svg">
<path d="M9.00497 18.0005C8.64844 18.0005 8.31296 17.8622 8.06046 17.6105L0.38943 9.93977C-0.12962 9.41819 -0.12962 8.56988 0.388288 8.04942L3.19836 5.23992C3.37186 5.06643 3.63813 5.0251 3.85631 5.13899C4.07367 5.25259 4.19231 5.49438 4.14961 5.73591C4.12093 5.89676 4.10798 6.02582 4.10798 6.14221C4.10798 7.37235 5.10924 8.39416 6.33995 8.39416C7.57178 8.39416 8.47126 7.37237 8.47126 6.14223C8.47126 4.9104 7.57178 3.90885 6.33995 3.90885C6.22467 3.90885 6.0962 3.92205 5.93535 3.95046C5.69158 3.99545 5.45201 3.87455 5.33842 3.65718C5.22482 3.43927 5.26588 3.17271 5.43936 2.99923L8.05935 0.378673C8.56688 -0.126599 9.44443 -0.125475 9.94968 0.377548L11.8679 2.29685C12.2683 1.05237 13.4368 0.148935 14.812 0.148935C16.5171 0.148935 17.9045 1.53682 17.9045 3.24241C17.9045 4.61764 17.0016 5.78621 15.7565 6.18604L17.6199 8.04826C18.1401 8.56984 18.1401 9.41815 17.6204 9.93919L9.95052 17.6094C9.69692 17.8622 9.36146 18.0005 9.00495 18.0005L9.00497 18.0005ZM3.08086 6.94778L1.18459 8.84346C1.10277 8.92585 1.10277 9.06195 1.1857 9.14546L8.8542 16.8142C8.96189 16.9208 9.04655 16.922 9.1562 16.8131L16.8244 9.14434C16.9068 9.06139 16.9068 8.92643 16.8239 8.84294L14.1193 6.14C13.95 5.97073 13.9061 5.71261 14.0104 5.49751C14.1147 5.28241 14.3416 5.15474 14.582 5.184L14.6678 5.19495C14.715 5.20143 14.7623 5.2093 14.8118 5.2093C15.8968 5.2093 16.7795 4.32724 16.7795 3.24276C16.7795 2.15713 15.8968 1.27397 14.8118 1.27397C13.7273 1.27397 12.8447 2.15714 12.8447 3.24276C12.8447 3.28775 12.8517 3.33161 12.8579 3.37574L12.87 3.47612C12.8824 3.59186 12.8586 3.7086 12.8018 3.81023C12.7451 3.91186 12.6582 3.99337 12.5531 4.04353C12.3394 4.1456 12.0819 4.10174 11.9134 3.93358L9.15539 1.17412C9.0477 1.06755 8.96307 1.06641 8.85339 1.17524L7.14666 2.88198C8.61018 3.24441 9.59598 4.56847 9.59598 6.14249C9.59598 7.99319 8.19151 9.51885 6.33968 9.51885C4.76623 9.51857 3.44272 8.41017 3.08086 6.94778Z" fill="#E6F2FF"/>
</svg>
