<svg viewBox="0 0 19 19" fill="none" xmlns="http://www.w3.org/2000/svg">
<path d="M17.9348 10.0125L9.47432 1.15048C9.42177 1.09562 9.35864 1.05198 9.28875 1.02219C9.21886 0.992404 9.14366 0.97709 9.06768 0.977173C8.99173 0.977205 8.91656 0.992572 8.84669 1.02235C8.77681 1.05213 8.71367 1.09571 8.66105 1.15048L0.156876 10.0123C-0.0587007 10.2368 -0.0510921 10.5933 0.173503 10.8092C0.398098 11.0245 0.754575 11.0183 0.970434 10.7926L1.7279 10.003V18.4364C1.7279 18.7478 1.98039 19 2.2915 19H6.22881C6.53935 19 6.79128 18.7489 6.79241 18.4381L6.81016 12.808H11.3012V18.4364C11.3012 18.7478 11.5534 19 11.8648 19H15.8007C16.1121 19 16.3643 18.7478 16.3643 18.4364V10.0001L17.1215 10.7934C17.1741 10.8482 17.2373 10.8918 17.3072 10.9216C17.377 10.9514 17.4522 10.9667 17.5282 10.9667C17.6685 10.9667 17.8094 10.9148 17.9185 10.8092C18.1428 10.5939 18.1501 10.2371 17.9348 10.0125ZM15.2372 8.98143V17.8728H12.4285V12.2447C12.4285 11.9333 12.1763 11.6811 11.8649 11.6811H6.24862C5.93808 11.6811 5.68615 11.9321 5.68502 12.243L5.66727 17.8731H2.85518V8.98141C2.85518 8.93491 2.84786 8.89039 2.83743 8.84699L9.06804 2.35461L15.2575 8.83968C15.2454 8.88534 15.2372 8.9324 15.2372 8.98143Z" fill="#E6F2FF"/>
</svg>
