<svg viewBox="0 0 47 47" fill="none" xmlns="http://www.w3.org/2000/svg">
    <path d="M23.5 0C10.5214 0 0 10.5214 0 23.5C0 36.4793 10.5214 47 23.5 47C36.4793 47 47 36.4793 47 23.5C47 10.5214 36.4793 0 23.5 0ZM23.5 44.1088C12.162 44.1088 2.9375 34.838 2.9375 23.4999C2.9375 12.1619 12.162 2.93741 23.5 2.93741C34.838 2.93741 44.0625 12.1619 44.0625 23.4999C44.0625 34.8379 34.838 44.1088 23.5 44.1088ZM24.9688 22.9037V8.81259C24.9688 8.00184 24.3107 7.34384 23.5 7.34384C22.6893 7.34384 22.0312 8.00184 22.0312 8.81259V23.5001C22.0312 23.9157 22.2053 24.2895 22.4836 24.5561C22.5079 24.5847 22.5277 24.6156 22.5542 24.6427L29.8237 31.913C30.3973 32.4859 31.327 32.4859 31.9006 31.913C32.4741 31.3395 32.4741 30.409 31.9006 29.8355L24.9688 22.9037Z"
          fill="#fff"/>
</svg>
